<?xml version="1.0" encoding="UTF-8" standalone="no"?>
<svg xmlns="http://www.w3.org/2000/svg" viewBox="0 0 100 60" width="100" height="60">
  <defs>
    <linearGradient id="gearGradient" x1="0%" y1="0%" x2="100%" y2="100%">
      <stop offset="0%" stop-color="#3498db" stop-opacity="0.8"/>
      <stop offset="100%" stop-color="#2980b9" stop-opacity="0.8"/>
    </linearGradient>
    <filter id="gearShadow" x="-30%" y="-30%" width="160%" height="160%">
      <feGaussianBlur in="SourceAlpha" stdDeviation="1.5" result="blur"/>
      <feOffset in="blur" dx="0.5" dy="0.5" result="offsetBlur"/>
      <feComposite in="SourceGraphic" in2="offsetBlur" operator="over"/>
    </filter>
  </defs>
  
  <!-- Main large gear -->
  <g filter="url(#gearShadow)">
    <path d="M30,30 L32,23 L29,22 L30,20 L33,21 L35,15 L37,16 L36,18 L39,19 L40,17 L43,18 L42,21 L45,22 L48,21 L49,24 L46,25 L47,28 L50,29 L49,32 L45,30 L44,33 L45,35 L42,36 L41,33 L38,32 L36,34 L34,32 L35,30 L32,29 L30,30" 
          fill="url(#gearGradient)" stroke="#2980b9" stroke-width="0.5">
      <animateTransform attributeName="transform" attributeType="XML" type="rotate" from="0 40 30" to="360 40 30" dur="15s" repeatCount="indefinite"/>
    </path>
    
    <circle cx="40" cy="30" r="7" fill="#2c3e50" stroke="url(#gearGradient)" stroke-width="0.5">
      <animateTransform attributeName="transform" attributeType="XML" type="rotate" from="0 40 30" to="360 40 30" dur="15s" repeatCount="indefinite"/>
    </circle>
  </g>
  
  <!-- Secondary smaller gear -->
  <g filter="url(#gearShadow)">
    <path d="M65,30 L67,24 L64,23 L65,21 L68,22 L70,16 L72,17 L71,20 L74,21 L75,18 L78,19 L77,23 L80,24 L83,23 L84,26 L81,27 L82,31 L85,32 L84,35 L80,33 L79,36 L80,39 L77,40 L76,37 L73,36 L71,38 L69,36 L70,34 L67,33 L65,34"
          fill="url(#gearGradient)" stroke="#2980b9" stroke-width="0.5">
      <animateTransform attributeName="transform" attributeType="XML" type="rotate" from="360 75 30" to="0 75 30" dur="13s" repeatCount="indefinite"/>
    </path>
    
    <circle cx="75" cy="30" r="6" fill="#2c3e50" stroke="url(#gearGradient)" stroke-width="0.5">
      <animateTransform attributeName="transform" attributeType="XML" type="rotate" from="360 75 30" to="0 75 30" dur="13s" repeatCount="indefinite"/>
    </circle>
  </g>
  
  <!-- Connection line between gears -->
  <line x1="47" y1="30" x2="68" y2="30" stroke="#3498db" stroke-width="0.5" stroke-dasharray="2 1" opacity="0.6"/>
  
  <!-- Decorative particles -->
  <circle cx="58" cy="30" r="1.5" fill="#3498db" opacity="0.8">
    <animate attributeName="opacity" values="0.4;1;0.4" dur="3s" repeatCount="indefinite"/>
    <animate attributeName="r" values="1;2;1" dur="2s" repeatCount="indefinite"/>
  </circle>
  
  <circle cx="61" cy="27" r="1" fill="#3498db" opacity="0.6">
    <animate attributeName="opacity" values="0.3;0.9;0.3" dur="2.5s" repeatCount="indefinite"/>
    <animate attributeName="r" values="0.8;1.5;0.8" dur="3s" repeatCount="indefinite"/>
  </circle>
  
  <circle cx="55" cy="33" r="1" fill="#3498db" opacity="0.6">
    <animate attributeName="opacity" values="0.3;0.9;0.3" dur="3.5s" repeatCount="indefinite"/>
    <animate attributeName="r" values="0.8;1.5;0.8" dur="2.5s" repeatCount="indefinite"/>
  </circle>
</svg>